<?xml version="1.0" standalone="no"?>
<!DOCTYPE svg PUBLIC "-//W3C//DTD SVG 20010904//EN"
 "http://www.w3.org/TR/2001/REC-SVG-20010904/DTD/svg10.dtd">
<svg version="1.0" xmlns="http://www.w3.org/2000/svg"
 width="700.000000pt" height="700.000000pt" viewBox="0 0 700.000000 700.000000"
 preserveAspectRatio="xMidYMid meet">
<metadata>
Created by potrace 1.14, written by Peter Selinger 2001-2017
</metadata>
<g transform="translate(0.000000,700.000000) scale(0.100000,-0.100000)"
fill="#000000" stroke="none">
<path d="M1739 6996 c-2 -2 -23 -6 -47 -10 -328 -44 -636 -296 -761 -620 -27
-70 -36 -104 -57 -216 -4 -19 -7 -649 -8 -1399 l-1 -1365 -165 -1 c-91 0 -169
1 -175 2 -6 2 -10 154 -9 431 l0 427 107 3 107 3 0 879 0 880 -22 1 c-115 5
-471 2 -475 -4 -3 -6 -6 -1276 -3 -1689 l0 -68 105 0 105 0 0 -470 0 -470 213
0 212 0 1 -1008 c0 -1084 0 -1084 54 -1242 70 -204 237 -411 416 -516 42 -25
44 -28 44 -72 1 -26 1 -143 1 -260 l0 -212 433 0 434 0 0 163 c0 89 0 178 1
197 l1 35 1220 0 1220 0 0 -197 0 -198 433 0 434 0 0 252 c0 192 3 253 12 256
7 2 41 23 74 46 255 171 412 435 442 741 2 22 4 471 4 998 l1 957 235 0 235 0
2 447 3 448 110 0 110 0 -1 295 c-2 275 -12 1399 -13 1446 -1 21 -3 21 -256
21 -167 -1 -256 -5 -258 -12 -3 -9 -1 -1698 2 -1735 1 -12 20 -15 104 -15
l102 0 3 -403 2 -402 -197 2 -198 3 -1 1365 c-1 751 -4 1393 -8 1427 -10 90
-50 223 -97 317 -117 233 -325 414 -569 495 -160 52 -86 50 -1936 50 -946 1
-1723 -1 -1725 -3z m2889 -474 l-3 -266 -1143 -1 -1142 0 -1 30 c0 27 0 139 1
407 l0 96 1145 0 1145 0 -2 -266z m1034 -566 c2 -6 4 -614 3 -1351 l-1 -1341
-23 -44 c-47 -93 -127 -181 -241 -268 -30 -23 -59 -46 -65 -50 -5 -4 -32 -20
-59 -36 -199 -116 -416 -199 -676 -260 -106 -25 -119 -28 -200 -41 -25 -4 -53
-9 -64 -11 -10 -2 -44 -6 -75 -10 -31 -3 -58 -8 -61 -9 -3 -2 -39 -6 -79 -10
-41 -4 -82 -8 -91 -10 -134 -26 -982 -26 -1160 0 -14 2 -52 6 -85 10 -33 3
-71 7 -85 10 -14 2 -45 7 -70 10 -115 14 -374 67 -460 94 -14 5 -43 14 -65 21
-154 47 -356 136 -463 204 -119 75 -246 193 -308 286 -65 96 -61 -6 -58 1470
1 740 2 1346 3 1347 0 1 986 1 2190 1 1640 0 2191 -3 2193 -12z m-3082 -4256
l0 -289 -637 0 -638 0 1 277 c1 152 2 283 3 290 1 9 135 12 636 12 l635 0 0
-290z m3084 0 l0 -285 -637 -2 -637 -2 0 290 0 289 637 -2 637 -3 0 -285z"/>
</g>
</svg>
