<?xml version="1.0" encoding="utf-8"?>
<!-- Generator: Adobe Illustrator 25.1.0, SVG Export Plug-In . SVG Version: 6.00 Build 0)  -->
<svg version="1.1" id="Capa_1" xmlns="http://www.w3.org/2000/svg" xmlns:xlink="http://www.w3.org/1999/xlink" x="0px" y="0px"
	 viewBox="0 0 46.1 46.1" style="enable-background:new 0 0 46.1 46.1;" xml:space="preserve">
<style type="text/css">
	.st0{fill:#17B2F2;}
</style>
<g>
	<path class="st0" d="M44.6,7.2h-3.4v11.6h1.4v5.3H40V6.5C40,2.9,37.1,0,33.5,0H12.2C8.6,0,5.7,2.9,5.7,6.5v17.3H3.4v-5.7h1.4V6.5
		H1.5v11.6h1.4v6.2h2.8V37c0,2.5,1.4,4.6,3.4,5.7v3.4h5.7v-2.6h16.1v2.6h5.7v-3.3c2.1-1.1,3.5-3.3,3.5-5.8V24.7h3.1v-5.9h1.5
		L44.6,7.2L44.6,7.2z M15.4,1.4h15.1v3.5H15.4V1.4z M17,36.8H8.6V33H17V36.8z M37.3,36.8h-8.4V33h8.4V36.8z M37.3,24.6
		c0,0-1.6,5.1-14.6,5.1c-13,0-14.3-5.1-14.3-5.1V6.8h28.9V24.6z"/>
</g>
</svg>
